<svg width="37" height="36" viewBox="0 0 37 36" fill="none" xmlns="http://www.w3.org/2000/svg">
<path fill-rule="evenodd" clip-rule="evenodd" d="M10.8892 10.125H8.89647C7.51947 10.125 6.37648 11.1893 6.27823 12.5633L4.99273 30.5633C4.94098 31.29 5.19297 32.0055 5.68947 32.5388C6.18672 33.072 6.88198 33.375 7.61098 33.375H28.389C29.118 33.375 29.8132 33.072 30.3105 32.5388C30.807 32.0055 31.059 31.29 31.0072 30.5633L29.7217 12.5633C29.6235 11.1893 28.4805 10.125 27.1035 10.125H25.125V9.75C25.125 5.81475 21.9352 2.625 18 2.625C14.2087 2.625 10.7047 5.6445 10.875 9.75C10.8802 9.8745 10.8847 9.99975 10.8892 10.125ZM25.125 12.375V18C25.125 18.621 24.621 19.125 24 19.125C23.379 19.125 22.875 18.621 22.875 18V12.375H13.125V18C13.125 18.621 12.621 19.125 12 19.125C11.379 19.125 10.875 18.621 10.875 18C10.875 18 10.9725 15.3712 10.9402 12.375H8.89647C8.69997 12.375 8.53648 12.5272 8.52298 12.723L7.23671 30.723C7.22921 30.8272 7.26523 30.9292 7.33648 31.0057C7.40773 31.0815 7.50673 31.125 7.61098 31.125H28.389C28.4932 31.125 28.5922 31.0815 28.6635 31.0057C28.7347 30.9292 28.7707 30.8272 28.7632 30.723L27.477 12.723C27.4635 12.5272 27.3 12.375 27.1035 12.375H25.125ZM22.875 10.125V9.75C22.875 7.0575 20.6925 4.875 18 4.875C15.3075 4.875 13.125 7.0575 13.125 9.75V10.125H22.875Z" fill="#F82B6F"/>
<rect x="21" y="5" width="16" height="16" rx="8" fill="#F8A82B"/>
<path d="M28.9995 16.3495C29.2638 16.3495 29.4957 16.3127 29.695 16.239C29.8943 16.161 30.0612 16.0548 30.1955 15.9205C30.3342 15.7862 30.4382 15.6258 30.5075 15.4395C30.5768 15.2532 30.6115 15.0517 30.6115 14.835C30.6115 14.3193 30.4685 13.9293 30.1825 13.665C29.8965 13.4007 29.5022 13.2685 28.9995 13.2685C28.4968 13.2685 28.1025 13.4007 27.8165 13.665C27.5305 13.9293 27.3875 14.3193 27.3875 14.835C27.3875 15.0517 27.4222 15.2532 27.4915 15.4395C27.5608 15.6258 27.6627 15.7862 27.797 15.9205C27.9357 16.0548 28.1047 16.161 28.304 16.239C28.5033 16.3127 28.7352 16.3495 28.9995 16.3495ZM28.9995 9.206C28.7612 9.206 28.5553 9.24283 28.382 9.3165C28.2087 9.39017 28.0635 9.48983 27.9465 9.6155C27.8338 9.73683 27.7493 9.87767 27.693 10.038C27.641 10.1983 27.615 10.3673 27.615 10.545C27.615 10.7313 27.6367 10.9133 27.68 11.091C27.7277 11.2643 27.8057 11.4203 27.914 11.559C28.0223 11.6933 28.1653 11.8017 28.343 11.884C28.5207 11.9663 28.7395 12.0075 28.9995 12.0075C29.2595 12.0075 29.4783 11.9663 29.656 11.884C29.8337 11.8017 29.9767 11.6933 30.085 11.559C30.1933 11.4203 30.2692 11.2643 30.3125 11.091C30.3602 10.9133 30.384 10.7313 30.384 10.545C30.384 10.3673 30.3558 10.1983 30.2995 10.038C30.2432 9.87767 30.1587 9.73683 30.046 9.6155C29.9333 9.48983 29.7903 9.39017 29.617 9.3165C29.4437 9.24283 29.2378 9.206 28.9995 9.206ZM30.5855 12.599C31.1575 12.7853 31.58 13.0713 31.853 13.457C32.126 13.8383 32.2625 14.3063 32.2625 14.861C32.2625 15.277 32.1823 15.654 32.022 15.992C31.866 16.33 31.645 16.6182 31.359 16.8565C31.073 17.0948 30.7285 17.279 30.3255 17.409C29.9268 17.539 29.4848 17.604 28.9995 17.604C28.5142 17.604 28.07 17.539 27.667 17.409C27.2683 17.279 26.926 17.0948 26.64 16.8565C26.354 16.6182 26.1308 16.33 25.9705 15.992C25.8145 15.654 25.7365 15.277 25.7365 14.861C25.7365 14.3063 25.873 13.8383 26.146 13.457C26.419 13.0713 26.8415 12.7853 27.4135 12.599C26.9585 12.4083 26.6162 12.1375 26.3865 11.7865C26.1612 11.4355 26.0485 11.013 26.0485 10.519C26.0485 10.1637 26.12 9.83217 26.263 9.5245C26.4103 9.21683 26.614 8.95033 26.874 8.725C27.134 8.49533 27.4438 8.31767 27.8035 8.192C28.1675 8.062 28.5662 7.997 28.9995 7.997C29.4328 7.997 29.8293 8.062 30.189 8.192C30.553 8.31767 30.865 8.49533 31.125 8.725C31.385 8.95033 31.5865 9.21683 31.7295 9.5245C31.8768 9.83217 31.9505 10.1637 31.9505 10.519C31.9505 11.013 31.8357 11.4355 31.606 11.7865C31.3807 12.1375 31.0405 12.4083 30.5855 12.599Z" fill="white"/>
</svg>
