<svg width="32" height="28" viewBox="0 0 32 28" fill="none" xmlns="http://www.w3.org/2000/svg">
<path d="M23.0312 0.625C20.1273 0.625 17.5848 1.87375 16 3.98453C14.4152 1.87375 11.8727 0.625 8.96875 0.625C6.65719 0.627605 4.44106 1.54702 2.80654 3.18154C1.17202 4.81606 0.252605 7.03219 0.25 9.34375C0.25 19.1875 14.8455 27.1553 15.467 27.4844C15.6309 27.5725 15.814 27.6186 16 27.6186C16.186 27.6186 16.3691 27.5725 16.533 27.4844C17.1545 27.1553 31.75 19.1875 31.75 9.34375C31.7474 7.03219 30.828 4.81606 29.1935 3.18154C27.5589 1.54702 25.3428 0.627605 23.0312 0.625ZM16 25.2063C13.4322 23.71 2.5 16.8939 2.5 9.34375C2.50223 7.62882 3.18448 5.98476 4.39712 4.77212C5.60976 3.55948 7.25382 2.87723 8.96875 2.875C11.7039 2.875 14.0003 4.33188 14.9594 6.67188C15.0441 6.87821 15.1883 7.05469 15.3736 7.1789C15.5589 7.3031 15.7769 7.36941 16 7.36941C16.2231 7.36941 16.4411 7.3031 16.6264 7.1789C16.8117 7.05469 16.9559 6.87821 17.0406 6.67188C17.9997 4.32766 20.2961 2.875 23.0312 2.875C24.7462 2.87723 26.3902 3.55948 27.6029 4.77212C28.8155 5.98476 29.4978 7.62882 29.5 9.34375C29.5 16.8827 18.565 23.7086 16 25.2063Z" fill="#F82B6F"/>
</svg>
